HIERARCHY
ROOT base
{
	OFFSET 0.0 0.0 0.0
	CHANNELS 6 Xposition Yposition Zposition Zrotation Yrotation Xrotation
	JOINT root
	{
		OFFSET 0 0 0
		CHANNELS 6 Xposition Yposition Zposition Zrotation Yrotation Xrotation
		JOINT chest
		{
			OFFSET 0 4.72302 0
			CHANNELS 3 Zrotation Yrotation Xrotation
			JOINT neck
			{
				OFFSET 0 4.47788 0
				CHANNELS 3 Zrotation Yrotation Xrotation
				End Site
				{
					OFFSET 0.0 0.0 0.0
				}
			}
			JOINT right_shoulder
			{
				OFFSET -0.481 4.87 3.6622
				CHANNELS 3 Zrotation Yrotation Xrotation
				JOINT right_elbow
				{
					OFFSET 0 -5.49576 0
					CHANNELS 3 Zrotation Yrotation Xrotation
					JOINT right_wrist
					{
						OFFSET 0 -5.17894 0
						CHANNELS 3 Zrotation Yrotation Xrotation
						End Site
						{
							OFFSET 0.0 0.0 0.0
						}
					}
				}
			}
			JOINT left_shoulder
			{
				OFFSET -0.481 4.87 -3.6622
				CHANNELS 3 Zrotation Yrotation Xrotation
				JOINT left_elbow
				{
					OFFSET 0 -5.49576 0
					CHANNELS 3 Zrotation Yrotation Xrotation
					JOINT left_wrist
					{
						OFFSET 0 -5.17894 0
						CHANNELS 3 Zrotation Yrotation Xrotation
						End Site
						{
							OFFSET 0.0 0.0 0.0
						}
					}
				}
			}
		}
		JOINT right_hip
		{
			OFFSET 0 0 1.69774
			CHANNELS 3 Zrotation Yrotation Xrotation
			JOINT right_knee
			{
				OFFSET 0 -8.43092 0
				CHANNELS 3 Zrotation Yrotation Xrotation
				JOINT right_ankle
				{
					OFFSET 0 -8.1974 0
					CHANNELS 3 Zrotation Yrotation Xrotation
					End Site
					{
						OFFSET 0.0 0.0 0.0
					}
				}
			}
		}
		JOINT left_hip
		{
			OFFSET 0 0 -1.69774
			CHANNELS 3 Zrotation Yrotation Xrotation
			JOINT left_knee
			{
				OFFSET 0 -8.43092 0
				CHANNELS 3 Zrotation Yrotation Xrotation
				JOINT left_ankle
				{
					OFFSET 0 -8.1974 0
					CHANNELS 3 Zrotation Yrotation Xrotation
					End Site
					{
						OFFSET 0.0 0.0 0.0
					}
				}
			}
		}
	}
	JOINT red_arrow
	{
		OFFSET 0 0 0
		CHANNELS 3 Zrotation Yrotation Xrotation
		End Site
		{
			OFFSET 0.0 0.0 0.0
		}
	}
	JOINT blue_arrow
	{
		OFFSET 0 0 0
		CHANNELS 3 Zrotation Yrotation Xrotation
		End Site
		{
			OFFSET 0.0 0.0 0.0
		}
	}
}
MOTION
Frames: 14
Frame Time: 0.0333333333333333
0 18.08466 0 0 0 0 0 0 0 0 -90 0 0 0 0 0 0 0 0 0 -90 0 0 0 0 0 0 0 0 90 0 0 0 0 0 0 0 0 0 0 0 0 0 0 0 0 0 0 0 0 0 0 0 0 0 0 0 0 0 0
1.56608622670174 0 -0.0216257221996784 0 -7.50517568321342 0 0 16.019370162487 0 -28.4062545474549 -3.9756933518294E-15 -11.0554723337823 1.32260933695301 0.078638682860906 8.47701537955529 -2.46683280044156 -2.69411470048865 1.40083934982154 -1.7813471463972 21.5590760126936 -32.697445464597 78.1462979923803 0 0 0 0 0 -22.8159407603235 -22.540117888277 35.7005866979917 63.4318985200167 0 0 0 0 0 55.0702092121447 -3.3792391549763 10.5258908300627 -45.2487533267164 0 0 18.7774771385484 3.78429469845941 -1.21348789574475 36.5588384875902 2.41532688149979 13.8418678620125 -99.0222930772823 0 0 0.842105101306469 9.64926629058074 -17.2749778955442 0 0 0 0 0 0
3.44491076469421 0 0.0344678580760956 0 -7.83831469717009 0 0 16.3747759103775 0 -29.6912891128405 -5.50408721392778 -13.397898612778 4.60917989128532 3.22789568050155 7.46542689723136 -4.46321798185387 -5.08977696873833 2.04453603769808 13.7994994292355 29.9712475928199 -36.5650701803094 83.2611261334793 0 0 0 0 0 -45.0799253271175 -24.1884244783787 43.1156131220468 54.1263668325213 0 0 0 0 0 45.2332500562623 -4.17797298742775 14.7216469197763 -36.042153514254 0 0 20.6794114551605 9.29316827276883 -0.965072193467294 54.9302830569778 -6.00896579751014 20.2795220806651 -106.587622337853 0 0 3.30679096500958 20.3558326096663 -24.5180139661039 0 0 0 0 0 0
5.79403802156448 0 -0.0909538984298706 0 -7.87182892632457 0 0 16.8740976572037 0 -27.7389811577229 -0.563595926956795 -13.5512660783082 2.01389159282809 2.11106337543688 4.62220978590236 -2.19797899443653 -7.82048923027901 1.52685699957553 23.8142200385399 30.1210388999373 -35.6747555114496 94.1698329927709 0 0 0 0 0 -57.2394988786534 -18.8488425077705 46.1107585142256 60.7400390058447 0 0 0 0 0 25.7626862228566 -4.01343588824383 11.8156658477343 -18.5044765654455 0 0 17.7871670443456 10.6511769528328 0.111190959154144 65.360227181543 -14.5311134050787 16.2860412078132 -104.315266212314 0 0 -0.170980417425863 28.0745439091308 -34.1615090934593 0 0 0 0 0 0
7.97750277519226 0 -0.448549631237984 0 -7.65405795734571 0 0 17.3652483224869 0 -28.24357660649 3.64645417213763 -12.3735509060397 -0.0693540857087132 1.46624528872556 2.58951439685572 0.642448663921269 -7.2564186949136 0.977192911413452 28.9889549660361 30.0313693894442 -38.1119202566778 105.055139623966 0 0 0 0 0 -66.5796703527332 -9.97435455559058 45.5326820691896 71.8530299930222 0 0 0 0 0 16.5403497091855 -2.05485199744504 8.54638481089907 -11.7159797239001 0 0 3.39928328431126 6.8408096728257 -1.1671444961341 74.2874791041756 -17.1052709215223 10.0122297201205 -91.804074030332 0 0 0.89906548523329 27.1459510980188 -36.6285965956686 0 0 0 0 0 0
10.1545028030872 0 -0.926235872507095 0 -7.24039057989389 0 0 17.8280474662781 0 -27.9548006026381 6.95215165508478 -10.9593991981995 -4.15779429491488 1.4062124195006 1.88505264283385 1.28619826774914 -5.70294762005397 0.576399465473664 30.9524528059202 28.5008426438221 -42.9430771324554 110.740848636273 0 0 0 0 0 -67.0853422358904 -3.89574046828961 41.1150119469037 76.5337791217994 0 0 0 0 0 9.14265076595607 -0.765664489947955 5.24562588699149 -7.57340937435852 0 0 -20.6926411345025 5.80505670985304 -0.833492126368424 75.4886053962239 -14.3449313197971 5.39596470089136 -72.4189316563253 0 0 3.84840431792555 26.2464300989359 -36.3856446072505 0 0 0 0 0 0
12.409011554718 0 -1.41066033840179 0 -6.67824113145212 0 0 18.0316136598587 0 -27.0642252070849 9.53400343254069 -9.2806390484251 -6.07134602431795 1.58843679883458 1.40047063119793 -0.694164726138943 -4.11420386552362 -0.113933492929489 32.728456534942 27.4983147167626 -49.6253197052475 109.105346179135 0 0 0 0 0 -64.837289627007 1.93308996448767 37.1796688094492 76.9430782078125 0 0 0 0 0 2.26123119752236 0.659831971143977 2.59759035994908 -7.9558513027814 0 0 -33.1565385438864 7.0699149409311 0.760598263611224 72.3976376884837 -11.2552342678069 2.30538063081329 -50.8038486315253 0 0 6.82065978290146 24.7545258123736 -32.550407035388 0 0 0 0 0 0
14.7783314108849 0 -1.86855646669865 0 -6.0652161040989 0 0 17.9491168379784 0 -24.7470954633668 10.6032557836548 -7.43391847656245 -7.61319360789724 2.00817870689461 0.760040305532755 -2.67897972983088 -4.20108435473652 -2.36932113040477 34.1300018327103 26.4962321052106 -53.3470386427856 106.404511796394 0 0 0 0 0 -62.7816452653168 8.17924907129755 33.9902822144619 76.7704588369187 0 0 0 0 0 -4.33893283551887 1.36341440957541 0.933535801855735 -12.725175178489 0 0 -36.8771211438874 8.48667236647418 1.36391161794714 66.7858615377445 -9.13418283848378 0.658157068156139 -34.0595203529286 0 0 9.9158559619657 22.6147416329448 -27.0136077840627 0 0 0 0 0 0
17.235244768858 0 -2.29703830480576 0 -5.46119747504621 0 0 17.6545244216919 0 -21.1491502438389 10.721898690771 -5.62168023314857 -9.58751970366686 2.50922270189379 -0.00444070937864288 -4.16672644569991 -5.62911427816342 -6.12269578870888 33.69571380724 22.5214472205301 -50.15606500402 102.180879908009 0 0 0 0 0 -59.4054943543582 13.640898591295 31.7985943417869 77.0183673830335 0 0 0 0 0 -9.14488354922178 1.72720181795442 -0.00393263256880572 -23.1728647593723 0 0 -35.2614839712461 8.79395331814746 1.40061939596494 60.9204651437072 -7.92947059875126 -0.464617737444237 -27.208246388948 0 0 12.4845943203258 19.5584953514662 -20.2634978117338 0 0 0 0 0 0
19.7103765487671 0 -2.69987159669399 0 -4.90140496469651 0 0 17.181299829483 0 -17.1222685777797 10.1747221379204 -3.90030582624921 -11.868016926709 3.25834457330948 -0.79540321189089 -4.20021189846068 -7.05133626934636 -11.5530570993746 31.3339170293688 16.7853101809095 -42.2867795235333 96.5226760674894 0 0 0 0 0 -54.1989386078898 16.5223200269377 30.5203249734947 76.2226435145379 0 0 0 0 0 -11.7657559522681 1.87841663988199 -0.563395911444508 -37.7939501872951 0 0 -31.498292783884 8.23570834445122 1.17916049378919 56.3244989321464 -8.1203613127211 -1.7016009744305 -29.9265148295459 0 0 13.5476210424562 15.7825070422735 -14.076006929482 0 0 0 0 0 0
22.1293110251427 0 -3.06906221322715 0 -4.40703117364112 0 0 16.5510366439819 0 -13.9055653997606 9.12251648175989 -2.58475019548816 -13.6614984695991 4.12719559203604 -1.59495765351367 -3.37376800405084 -6.64355044698179 -16.8659325631201 27.28951996846 11.1459816025553 -33.3286501895446 89.8718954764054 0 0 0 0 0 -46.7971867651194 15.4935474211484 28.4410756755307 74.3284339822074 0 0 0 0 0 -11.7022790549547 1.69958872072349 -0.707604068975483 -53.7531857868393 0 0 -28.1787531420335 7.56599550266719 0.969842821183878 52.9560029735666 -8.98140210420498 -2.91604315469478 -37.3901220828073 0 0 13.365912259656 12.4675260729617 -9.24045748592133 0 0 0 0 0 0
24.4334434896708 0 -3.40982791855931 0 -3.95290306315392 0 0 15.7988218665123 0 -12.5807241282979 8.42427478580486 -2.01629948091103 -13.8759024348994 4.15830413228218 -2.08127743360014 -3.05088162469064 -4.81969557468093 -19.7370528118478 20.2056138680619 6.39992883052293 -24.4509639713416 83.0689860819377 0 0 0 0 0 -37.2942943280117 11.1615445654433 23.6969618123918 72.7616568884982 0 0 0 0 0 -7.94967742928767 0.540204383263116 -0.461368924585636 -68.6581270464787 0 0 -24.4262674629165 6.71643614175475 0.794387691510896 50.3804495840964 -8.86885766286806 -4.14525246713931 -44.906352528529 0 0 6.09830515104399 11.8219021169343 -2.04718030050063 0 0 0 0 0 0
26.4443002283573 0 -3.77243568450212 0 -3.4376915459006 0 0 15.3781763553619 0 -13.6415274072418 9.51799720577371 -1.34961639543025 -12.7165948242742 3.07783305792792 -1.98724605061921 -4.93785525993788 -2.782354429021 -19.6793337326421 10.0215088041988 5.08804153893549 -18.0110526100346 74.9634025183976 0 0 0 0 0 -22.7341668416792 4.0342502730154 16.1182001748579 71.419135395808 0 0 0 0 0 2.42248105840951 -2.06021059897161 -1.34532661503587 -82.1801052633522 0 0 -18.7611641618491 4.99223727494734 0.533582708354541 50.7452792222196 -7.1958864241249 -6.80908292831959 -57.7658399619518 0 0 21.0037250990112 10.72673891184 0.171173936422471 0 0 0 0 0 0
28.1772902965546 0 -4.19417812936008 0 -2.81615446123252 0 0 15.4425947785377 0 -17.8351794955363 11.2565137216832 0.161518700290983 -7.18545155233876 1.35848199649881 -2.04814366749035 -5.78089805544447 -1.56927035450493 -15.2338505513156 -3.51092259730166 9.54270616974748 -17.2688837844535 65.1099325651163 0 0 0 0 0 -3.30024709532525 -4.12967679846977 13.0001510241847 73.6055131000749 0 0 0 0 0 22.2130900307466 -3.8573425631283 -7.05710538945815 -93.8228320621776 0 0 -9.24767182156782 2.46084400149227 6.31286198392298 47.9059060730371 -3.34108464619698 -8.80855073273509 -57.6684824455224 0 0 27.8885185914819 6.47100787725572 2.36271733113297 0 0 0 0 0 0
